<svg version="1.1" viewBox="0.0 0.0 480.9711286089239 479.98687664041995" fill="none" stroke="none" stroke-linecap="square" stroke-miterlimit="10" xmlns:xlink="http://www.w3.org/1999/xlink" xmlns="http://www.w3.org/2000/svg"><clipPath id="p.0"><path d="m0 0l480.97113 0l0 479.98688l-480.97113 0l0 -479.98688z" clip-rule="nonzero"/></clipPath><g clip-path="url(#p.0)"><path fill="#000000" fill-opacity="0.0" d="m0 0l480.97113 0l0 479.98688l-480.97113 0z" fill-rule="evenodd"/><path fill="#ffffff" d="m207.09187 239.99344l0 0c0 -82.362 61.311295 -149.12958 136.94261 -149.12958l0 0c36.319458 0 71.15134 15.7118225 96.83307 43.67904c25.681702 27.967224 40.10956 65.898926 40.10956 105.45055l0 0c0 82.362 -61.31131 149.12958 -136.94263 149.12958l0 0c-75.63132 0 -136.94261 -66.76758 -136.94261 -149.12958z" fill-rule="evenodd"/><path fill="#ffffff" d="m70.18102 314.55823l0 0c0 -41.181 30.648537 -74.56479 68.45542 -74.56479l0 0c18.155502 0 35.567413 7.8559113 48.40529 21.839508c12.837891 13.983612 20.050125 32.949463 20.050125 52.72528l0 0c0 41.181 -30.64853 74.56479 -68.455414 74.56479l0 0c-37.806885 0 -68.45542 -33.38379 -68.45542 -74.56479z" fill-rule="evenodd"/><path fill="#ffffff" d="m-0.0059764734 278.22156l0 0c0 -21.112793 15.711909 -38.22812 35.093533 -38.22812l0 0c9.307381 0 18.233559 4.027588 24.814873 11.196762c6.581314 7.1691437 10.278656 16.892624 10.278656 27.031357l0 0c0 21.112823 -15.711906 38.22812 -35.09353 38.22812l0 0c-19.381622 0 -35.093533 -17.115295 -35.093533 -38.22812z" fill-rule="evenodd"/></g></svg>